<?xml version="1.0" encoding="UTF-8"?>
<!DOCTYPE svg PUBLIC "-//W3C//DTD SVG 1.0//EN" "http://www.w3.org/TR/2001/REC-SVG-20010904/DTD/svg10.dtd">
<!-- Creator: CorelDRAW -->
<svg xmlns="http://www.w3.org/2000/svg" xml:space="preserve" width="3.41333in" height="3.41333in" version="1.0" style="shape-rendering:geometricPrecision; text-rendering:geometricPrecision; image-rendering:optimizeQuality; fill-rule:evenodd; clip-rule:evenodd"
viewBox="0 0 3413.33 3413.33"
 xmlns:xlink="http://www.w3.org/1999/xlink"
 xmlns:xodm="http://www.corel.com/coreldraw/odm/2003">
 <defs>
  <style type="text/css">
   <![CDATA[
    .fil0 {fill:#373435}
    .fil3 {fill:#282829}
    .fil1 {fill:#0EA5E9}
    .fil2 {fill:#282829;fill-rule:nonzero}
   ]]>
  </style>
 </defs>
 <g id="Layer_x0020_1">
  <metadata id="CorelCorpID_0Corel-Layer"/>
  <path class="fil0" d="M1862.64 1219.52c1.06,2.26 1.06,37.17 0,39.43 -1.04,0.49 -4.33,1.05 -6.04,0.31 -1.85,-0.8 -1.27,-3.54 -1.25,-6.02l0 -28.02c-0.02,-2.16 -0.48,-4.93 0.91,-5.84 1.44,-0.95 5.28,-0.38 6.39,0.14zm-82.49 39.94c-7.25,0.02 -8.19,0.24 -5.19,-7.26 0.74,-1.85 1.36,-3.68 2.14,-5.63l6.51 -16.84c0.78,-2 1.5,-3.7 2.23,-5.55 1.74,-4.39 0.17,-1.52 2.59,-5.2l7.8 0.01c1.86,2.84 3.02,6.55 4.43,10.09l8.3 20.75c2.76,6.93 3.46,6.31 1.26,9.64l-5.71 0c-1.13,-1.73 -1.41,-2.16 -2.31,-4.44 -0.67,-1.71 -1.17,-3.5 -1.83,-4.9l-16.08 0c-1.68,3.14 -2.04,6.32 -4.15,9.32zm-17.13 -1.56c-1.02,0.71 -1.34,1.57 -2.58,1.57 -3.93,0 -5.66,0.59 -5.71,-3.63l-0.01 -30.09c-4.03,0.03 -8.16,0.26 -11.41,-0.51 -1.07,-4.84 -1.57,-6.32 4.13,-6.25l21.82 0.02c5.41,-0.07 5.77,-0.39 5.56,5.06l-1.41 1.69 -10.4 0.01 0 32.15zm57.89 -29.33c-1.07,-1.76 -2.06,-2.91 -3.14,-4.66 -3.53,-5.73 3.01,-4.9 4.92,-4.9 3.04,0 6.9,10.44 9.85,12.45l4.25 -6.65c0.69,-1.09 1.39,-2.3 1.93,-3.26 0.64,-1.14 0.97,-2.55 2.64,-2.55 12.77,0 3.8,4.84 -4.14,19.71 2.39,3.55 4.54,6.86 7.05,10.58 1.32,1.96 2.27,3.37 3.46,5.37 3.41,5.7 -2.72,4.78 -6.37,4.81l-7.02 -10.61c-1.08,-1.85 -0.72,-2.33 -2.83,-2.89 -0.52,1.91 -3.52,5.78 -4.7,7.74 -2.69,4.5 -2.96,5.7 -6.2,5.74 -9.1,0.1 -4.19,-4.06 -0.87,-9.7 1.63,-2.78 6.52,-9.12 7.1,-11.57l-5.93 -9.63zm60.39 -38.09l-156.65 0c-10.95,0 -12.63,16.93 -15.9,28.19 -1.17,4.03 -2.19,7.81 -3.29,11.75l-9.67 34.93c-2.04,6.98 -5.02,15.46 3.95,21.09 3.51,2.2 7.98,1.56 13.49,1.56l178.44 0c4.95,0 10.44,0.6 13.85,-1.19 10.09,-5.27 6.32,-14.85 4.81,-20.59 -5.03,-19.15 -11.34,-39.75 -16.19,-58.51 -1.47,-5.68 -3.56,-17.22 -12.85,-17.22z"/>
  <path class="fil0" d="M1786.89 1243.37l10.88 0.01c-0.95,-1.96 -1.83,-4.91 -2.67,-7.18 -0.41,-1.11 -1.02,-2.59 -1.41,-3.79l-0.98 -2.64c-0.4,-0.72 -0.26,-0.48 -0.64,-0.91l-1.35 3.3c-0.99,2.9 -3.63,8.7 -3.82,11.21z"/>
  <path class="fil1" d="M1490.11 1492.89l0 18.33c-19.6,0.48 -61.09,1.24 -136.21,2.42 0.14,-3.46 0.27,-4.34 1.96,-16.3 0.24,-1.69 0.3,-3.17 1.01,-4.95 79.17,0.54 122.15,0.92 125.94,1.12 2.72,0.15 5.14,-0.09 7.3,-0.61zm-646.66 31.5c-113.44,4.07 -171.74,9.2 -196.94,16 -9.29,2.5 -31.37,10.68 -37.45,11.54l100.94 -3.85c29.77,0.11 76.01,7.77 99.61,-3.3 -15.06,12.18 -42.16,6.57 -65.69,6.58 -25.46,0 -50.11,0.1 -75.51,1.17l48.11 19.5c29.05,15.44 46.91,35.92 64.19,62.91 5.77,9.02 20.92,32.01 23.56,41.95l-10.05 -13.13c-3.16,-5.5 -3.82,-6.63 -7.33,-11.66 -5.65,-8.07 -10.14,-15.69 -15.31,-22.87 -47.62,-66.06 -139.78,-93.34 -215.98,-50.36 -16.12,9.09 -34.08,22.2 -43.96,32.31 -8.74,8.95 -23.57,29.96 -30.59,45.62 -8.89,19.79 -12.56,36.25 -16.15,60.23 -10.72,2.33 -8.99,0.5 -14.77,-4.61 4.52,3.87 9.33,5.52 8.55,13.23 -12.57,1.49 -24.18,2.34 -35.04,5.25 2.66,12.2 8.32,8.13 0.25,21.76 -22.33,0.46 -16.96,-23.06 -17.65,-42.72 -0.69,-19.79 -5.16,-39.28 9.18,-49.65 6.32,8.99 9.93,22.31 16.44,31.88 1.48,-18.18 -4.12,-25.94 6.59,-39.63 0.39,0.43 0.72,1.13 0.91,1.49 0.19,0.35 0.64,1.07 0.86,1.51l0.78 1.54c2.56,5.07 2.72,6.41 6.64,7.95 0.19,0.07 1.09,0.61 1.24,0.24 0.14,-0.38 0.88,0 1.59,0.26l-2.7 9.75c5.37,-17.29 1.79,-22.13 5.25,-37.33 5.4,-23.76 0.27,-19.93 -0.64,-40.33 6.81,-4.45 12.15,-12.61 18.15,-19.54l3.44 5.8c3.98,8.65 2.73,10.84 10.65,14.16 -0.89,-10.57 -1.87,-19.46 -1.5,-30.19 0.27,-7.77 0.53,-19.05 3.78,-25.86 6.45,-1.59 17.11,-0.27 24.56,1.96 15.06,4.52 5.29,6.41 16.1,-1.46 -8.49,3.19 -6.41,4.75 -15.57,1.35 0.38,-0.54 0.9,-1.19 1.24,-1.57 12.39,-13.85 39.32,-24.23 56.1,-30.26 71.54,-25.67 150.54,-28.07 227.57,-28.4 15.45,-0.07 34.16,0.45 46.12,1.33 -1.14,3.99 -2.11,10.48 -1.78,17.32 0.51,10.31 0.2,13.83 2.21,22.15z"/>
  <path class="fil1" d="M636.58 1761.49l23.4 112.83 -45.85 2.28 13.98 -90.4c0.89,-5.24 1.38,-9.71 2.24,-14.72 1.7,-9.9 -0.42,-8.32 6.24,-9.99zm-29.8 112.33c-17.84,-2.27 -26.58,-8.59 -40.96,-12.73 2.42,-8.17 50.53,-96.93 58.29,-102.07l-17.33 114.8zm40.39 -115.33c4.55,4.01 59.27,91.08 61.63,98.33 -12.24,4.7 -25.32,13.76 -41.76,15.46l-19.87 -113.79zm7.78 -4.9l92.11 67.78c-3.59,8.78 -23.95,27.12 -31.99,30.15l-60.11 -97.93zm-96.79 101.89c-10.95,-5.78 -28,-17.67 -32.23,-26.89 5.93,-6.38 83.91,-75.52 86.63,-74.53 5.64,2.05 -19.69,41.37 -24.24,49.57 -5.22,9.41 -25.02,47.46 -30.16,51.84zm103.5 -109.1c3.58,-6.28 1.92,-5.4 11.88,-1.72 19.68,7.27 91.35,30.43 98.32,35.2 -4.04,15.72 -12.93,25.09 -17.81,36.82 -11.76,-4.18 -65.62,-48.72 -83.96,-61.91 -6.06,-4.36 -6.52,-6.02 -8.42,-8.38zm-139.06 76.31c-9.96,-4.95 -21.28,-23.91 -24.26,-36.48 10.8,-7.06 64.96,-27.57 83.93,-35.22 60.17,-24.25 -9.33,23.07 -38.87,52.23 -8.56,8.45 -12.27,8.44 -20.8,19.47zm-28.68 -44.08c-2.21,-11.77 -10.17,-28.87 -6.03,-41.58l111.3 -1.84c-3.99,3.21 -2.49,2.08 -7.24,4.31 -0.05,0.02 -5.44,2.16 -6.04,2.39l-39.34 15.79c-16.8,6.8 -35.48,16.12 -52.66,20.94zm196.25 -35.43c-16.62,-5.74 -21.41,-4.81 -23.81,-12.96l115.14 -1.96c-0.14,14.11 -0.87,31.77 -7.17,43.1 -14.45,-2.54 -40.36,-12.86 -55.76,-18.38 -9.91,-3.56 -18.81,-6.49 -28.4,-9.8zm-204.24 -13.3c0.65,-19.61 3.3,-28.08 6.59,-45.8 13.77,2.11 67.18,21.54 86.58,28.22 4.74,1.63 9.37,2.98 14.37,4.74 9.7,3.43 8.46,1.69 8.37,10.47l-115.9 2.36zm179 -7.98c2.37,-6.85 16.99,-9.72 24.15,-12.48l83.78 -32.2c2.83,13.81 7.63,28.12 8.26,44.12l-116.19 0.57zm-168.37 -45.89c2.56,-11.27 14.17,-30.94 21.33,-37.59 9.01,3.91 54.65,43.81 69.52,55 11.83,8.9 18.96,12.48 18.06,20.23l-108.9 -37.64zm163.74 35.82c0.92,-4.91 2.57,-5.62 9.04,-11.48l77.43 -65.43c8.09,7.08 18.2,21.03 21.44,34.72 -7.37,5.13 -98.92,41.16 -107.91,42.18zm-136.81 -80.33c4.53,-8.51 22.24,-23.12 33.52,-27.6 9.33,20.67 43.08,70.62 57.53,99.15 -5.16,-0.24 -85.94,-64.69 -91.05,-71.55zm128.57 71.49c1.18,-5.19 50.99,-93.88 56.56,-100.56 13.5,5.32 23.85,17.81 32.83,25.91l-21.02 19.15c-6.11,5.94 -14.96,12.93 -22.9,19.49 -4.54,3.75 -6.72,6.28 -11.1,10.1 -7.36,6.42 -26.07,25.22 -34.37,25.9zm-89.19 -103.36c9.16,-6.02 26.48,-13 39.79,-14.73 5.14,8.72 22.41,101.05 21.5,114.03 -8.04,-3.33 -12.35,-15.65 -16.78,-23.38 -9.7,-16.93 -40.45,-65.04 -44.51,-75.92zm81.77 98.81c-2.72,-5.34 11.4,-105.68 15.24,-114.32 14.75,1.46 31.32,8.01 41.51,14.12l-56.76 100.2zm5.34 -116.33c2.06,7.71 -11.44,106.74 -15.52,114.36 -5.56,-5.85 -22.69,-109.21 -23.18,-114.34l38.7 -0.02zm145.57 168.06c12.07,-95.58 -57.3,-171.82 -139.62,-182.89 -96.61,-12.98 -172.17,57.2 -183.83,139.55 -13.58,95.89 57.57,173.39 140.5,183.95 95.52,12.17 172.54,-58.08 182.96,-140.61z"/>
  <path class="fil1" d="M1736.96 1408.52c0.98,-56.67 -4.58,-47.71 24.26,-70.05 21.12,-16.35 64.57,-17.4 118.84,-19.24 17.7,1.94 39.75,2.32 64.72,8.29 101.71,24.31 198.01,75.56 198.01,190.39 -1.5,7.61 -4.73,14.64 -8.89,19.61 9.11,3.32 20.11,6.64 29.24,10.89 7.99,3.72 16.83,7.59 23.45,13.57 -23.32,-5.97 -34.96,-14.21 -56.1,-19.54 -0.65,2.01 -1.54,3.96 -2.65,5.84 44.6,11.2 87.99,36.91 117.31,66.43l45.77 45.31c3.64,4.08 11.57,14.78 19.72,25.26 4.56,-6.86 11.94,-15.22 17.87,-21.54 -18.83,-52.61 -74.81,-116.74 -88.14,-135.34 -51.79,-72.46 -58.7,-82.65 -129.48,-150.31 -55.22,-52.77 -126.55,-72.59 -204.66,-79.32 -71.1,-6.13 -135.24,-4.82 -203.7,-0.2 -23.8,1.61 -71.05,5.89 -93.68,12.36l-52.2 19.66c-9.44,3.91 -15.56,8.82 -23.44,12.69l4.28 12.72c-4.96,4.48 -13.64,16.32 -19.11,23.26 -6.15,7.81 -12.12,15.26 -18.64,23.76l-54.57 72.58c-5.14,7.14 -9.93,15.28 -19.74,17.41l0 18.22c35.3,-0.88 70.61,-0.87 105.71,-0.81 13.35,0.02 2.66,-0.02 21.27,-0.08 2.03,-5.94 1.94,-7.62 4.54,-15.04 -29.44,0.71 -49.52,1.91 -58.04,-3.15 -12.3,-7.3 -17.11,-22.4 -6.96,-37.57 18.45,-27.55 49.8,-67.02 77.67,-83.37 24.59,-14.44 50.41,-22.18 82.78,-25.43 53.79,-5.41 60.22,-12.53 59.57,44.14 -0.12,10.72 2.2,71.75 -1.05,79.95 14.58,-21.37 23.73,-27.85 24.38,-32.72 1.11,-8.39 1.44,-16.04 1.66,-28.61z"/>
  <g id="_2262969732016">
   <path class="fil2" d="M1104.79 1760.24c0,31.94 -8.05,53.8 -24.16,65.54 -5.51,4.7 -10.38,7.05 -14.62,7.05l-41.96 0c-1.27,-0.47 -2.96,-0.94 -5.08,-1.41 -5.51,-1.41 -10.17,-7.05 -13.99,-16.91 -3.39,-7.99 -5.09,-15.27 -5.09,-21.85l0 -9.87 38.15 0 0 10.33c0,14.8 2.96,24.55 8.9,29.13 13.56,-13.15 20.34,-34.53 20.34,-64.13 -0.43,-7.99 -1.06,-14.57 -1.91,-19.74 -0.43,-1.88 -1.06,-4.7 -1.91,-8.46 -1.7,-10.33 -6.78,-20.44 -15.26,-30.3 -8.48,-9.87 -17.38,-16.21 -26.7,-19.03 -6.78,-1.88 -10.17,-2.82 -10.17,-2.82 -5.51,0.94 -12.29,2.82 -20.34,5.64 -22.04,7.99 -44.93,21.85 -68.66,41.58 0.42,6.58 -0.85,11.98 -3.81,16.21l27.97 0c10.59,5.17 22.04,15.27 34.33,30.31 13.99,16.44 20.98,30.07 20.98,40.87 0,6.11 -2.86,11.04 -8.58,14.8 -5.72,3.76 -11.76,5.64 -18.12,5.64l-55.31 0c-1.27,-0.47 -2.97,-0.7 -5.09,-0.7 -19.5,-1.88 -32.63,-12.45 -39.42,-31.71 -21.61,13.15 -33.9,19.73 -36.87,19.73l-40.05 0 0 -2.11c2.12,-3.29 6.35,-8.93 12.71,-16.91 25.85,-32.42 50.22,-57.79 73.11,-76.11 -2.97,-19.73 -10.38,-35.24 -22.25,-46.51 -13.56,7.75 -20.34,18.8 -20.34,33.24 0,3.88 1.48,8.34 4.45,13.39 2.97,5.05 6.15,7.87 9.54,8.34l17.8 0c-2.96,0 -4.66,0 -5.08,0l-45.77 0c-1.7,-0.47 -3.6,-1.17 -5.72,-2.11 -8.48,-3.29 -12.71,-10.57 -12.71,-21.85 0,-17.85 8.9,-29.13 26.59,-33.83 5.08,-1.41 8.26,-2.11 9.54,-2.11l48.85 0c8.9,0 17.48,9.4 25.96,28.19 24.16,-14.21 45.04,-22.43 62.83,-24.67 2.12,-0.47 4.34,-0.7 6.89,-0.7l53.3 0c7.73,0 16.42,2.35 26.27,7.05 27.02,13.63 40.48,39.23 40.48,76.82zm-141.13 51.44c0,-9.4 -5.72,-21.38 -17.16,-35.94 -9.75,-12.22 -20.13,-22.32 -31.15,-30.31 0,0.94 -0.43,1.65 -1.27,2.12l-17.17 0c-11.02,10.8 -22.04,22.55 -33.06,35.24l40.69 0c2.12,0 3.81,2.58 5.09,7.75 5.09,20.67 13.14,32.89 24.16,36.65 7.21,2.35 11.23,3.52 12.08,3.52 6.78,0 12.08,-3.29 15.89,-9.87 1.27,-2.35 1.91,-5.4 1.91,-9.16zm358.74 -346.03c0,13.15 -4.87,26.07 -14.62,38.76 -19.5,25.84 -54.04,52.15 -103.62,78.93 -26.7,14.56 -52.98,27.01 -78.83,37.35l-43.23 -6.34c130.54,-56.38 195.81,-107.83 195.81,-154.34 0,-25.37 -18.86,-46.28 -56.58,-62.72 -28.4,-12.69 -52.77,-19.03 -73.11,-19.03l-51.49 0c-1.27,0 -2.96,0.24 -5.09,0.7 -48.74,3.29 -90.48,13.39 -125.24,30.31 -48.74,23.49 -73.11,57.08 -73.11,100.78 0,45.1 27.76,98.19 83.28,159.27 -10.17,-0.47 -25.01,-2.35 -44.5,-5.64 -0.43,0 -3.81,-3.99 -10.17,-11.98 -21.61,-25.84 -38.14,-48.86 -49.59,-69.06 -8.48,-15.04 -14.63,-29.6 -18.44,-43.7 -2.97,-11.74 -4.45,-23.49 -4.45,-35.24 0,-40.87 21.62,-73.29 64.85,-97.25 28.82,-15.51 62.94,-25.84 102.35,-31.01 19.08,-2.35 31.58,-3.52 37.51,-3.52l48.95 0c13.13,0.94 23.1,1.88 29.88,2.82 24.58,3.29 48.95,6.58 73.11,9.87 27.97,5.64 52.55,13.86 73.74,24.67 28.4,15.03 42.59,33.83 42.59,56.38zm89.83 447.51l-25.43 4.93c-0.43,0 -0.63,0 -0.63,0 -30.52,-25.37 -52.13,-63.66 -64.85,-114.87 -6.36,-27.25 -10.38,-60.84 -12.08,-100.78l0 -58.49c0,-5.17 0.63,-16.91 2.01,-35.24 0.42,-7.99 1.27,-17.85 2.54,-29.6 2.23,-21.61 4.66,-42.05 7.31,-61.31 4.77,-35.7 7.2,-59.9 7.2,-72.59 0,-18.32 -2.22,-34.18 -6.67,-47.57 -4.45,-13.39 -11.55,-24.31 -21.3,-32.77 -3.81,-2.82 -8.26,-5.64 -13.35,-8.46 -10.17,-5.17 -19.28,-7.75 -27.33,-7.75 -2.54,0 -8.05,2.35 -16.53,7.05 -26.7,15.04 -44.29,35.71 -52.76,62.02 -5.09,17.38 -7.63,35.24 -7.63,53.56 0,45.1 11.44,79.17 34.33,102.19 3.39,-3.76 9.96,-13.86 19.71,-30.31 8.05,-13.62 15.04,-27.01 20.98,-40.17 13.14,-31.01 19.71,-55.44 19.71,-73.29 0,-5.64 -0.85,-11.04 -2.54,-16.21l-0.63 0c-2.97,3.76 -7,9.16 -12.08,16.21 -5.94,0.94 -14.62,2.58 -26.07,4.93 8.48,-11.75 12.93,-17.85 13.35,-18.32 6.36,-7.52 11.66,-11.75 15.89,-12.69 10.17,-1.88 19.07,-3.52 26.7,-4.93 8.06,0 12.08,8.22 12.08,24.67 0,10.33 -3.18,25.13 -9.54,44.4 -4.24,14.09 -9.96,28.43 -17.17,42.99 -10.17,21.61 -27.76,50.04 -52.76,85.28 -9.75,13.15 -22.89,31.94 -39.42,56.38 -10.17,15.97 -16.32,26.78 -18.44,32.42 1.27,-1.41 3.39,-3.52 6.35,-6.34 9.75,-7.52 19.71,-13.39 29.89,-17.62 3.39,-1.41 7.2,-2.58 11.44,-3.52 2.96,-0.47 7.63,-1.41 13.99,-2.82 12.29,-1.88 19.49,-2.82 21.61,-2.82 27.12,0 40.69,22.08 40.69,66.24 0,39.47 -9.75,69.3 -29.24,89.5 -9.32,9.87 -18.44,15.97 -27.33,18.32 -4.67,1.41 -13.56,3.29 -26.7,5.64 -15.69,2.82 -27.76,4.23 -36.24,4.23 -40.69,0 -61.03,-13.15 -61.03,-39.46 0,-5.64 1.48,-16.44 4.45,-32.42 1.27,-8.46 3.6,-17.85 6.99,-28.19 7.21,-23.02 18.02,-46.74 32.42,-71.18 1.27,-1.41 22.04,-31.01 62.31,-88.8l-23.52 4.23c0,0 -0.21,0 -0.63,0 -24.16,-23.96 -36.24,-58.5 -36.24,-103.6 0,-10.81 0.85,-21.14 2.54,-31.01 0,-0.47 1.8,-7.52 5.41,-21.14 3.6,-13.63 12.19,-27.25 25.75,-40.88 11.44,-12.21 23.94,-21.61 37.51,-28.19 5.08,-2.35 15.26,-5.17 30.51,-8.46 12.29,-2.35 20.56,-3.52 24.8,-3.52 10.17,0 20.34,2.82 30.51,8.46 8.9,4.23 15.89,9.4 20.98,15.5 13.56,16.91 20.35,41.58 20.35,74 0,12.69 -0.63,24.43 -2.01,35.24 -9.65,69.54 -15.26,124.27 -17.06,164.2l0 33.12 0 22.55c0.85,11.28 1.7,23.96 2.54,38.06 0.43,6.58 1.7,17.39 3.82,32.42 8.05,55.91 25,98.43 50.85,127.56 8.05,8.93 14.62,15.27 19.71,19.03zm-147.49 -190.28c0,-31.48 -7.41,-51.91 -22.25,-61.31 -5.09,-3.29 -10.17,-4.93 -15.26,-4.93 -2.54,0 -9.75,4.23 -21.62,12.69 -16.53,11.28 -29.24,25.37 -38.15,42.28 -6.36,10.81 -9.54,20.67 -9.54,29.6 0,20.67 16.32,32.19 48.95,34.54 7.2,0 10.81,0 10.81,0l-26.06 5.64c-0.85,0 -4.66,-0.24 -11.44,-0.7 -18.65,-0.94 -32.21,-5.64 -40.69,-14.09 0,0.47 -0.53,3.87 -1.59,10.22 -1.06,6.34 -1.59,11.16 -1.59,14.45 0,26.31 20.13,39.46 60.4,39.46 6.36,0 10.59,-0.24 12.71,-0.7 4.66,-0.94 8.69,-2.82 12.08,-5.64 28.82,-20.67 43.23,-54.5 43.23,-101.48zm373.37 26.08c0,10.45 -0.85,22.55 -2.54,36.29 -1.27,11.28 -5.09,22.2 -11.44,32.65 -7.2,11.86 -14.83,17.74 -22.89,17.74l-40.69 0c-10.17,0 -18.01,-7.75 -23.52,-23.26 -6.78,11.74 -14.2,19.03 -22.25,21.85 -2.54,0.94 -4.24,1.41 -5.09,1.41l-46.41 0c-2.97,0 -6.15,-3.29 -9.54,-9.87 -4.66,6.58 -8.9,9.87 -12.71,9.87l-54.04 0c-22.04,0 -33.06,-5.64 -33.06,-17.03 0,-5.76 7.21,-17.74 21.61,-36.3 12.3,-15.62 25.64,-30.07 40.05,-43.34 -4.24,-12.22 -6.36,-22.44 -6.36,-30.54 0,-22.2 8.9,-37.35 26.7,-45.46 5.09,-2.35 8.9,-3.52 11.44,-3.52l44.5 0c7.63,0 12.29,3.52 13.98,10.57 0,0.47 0.21,0.94 0.64,1.41 17.38,-7.99 30.72,-11.98 40.05,-11.98l40.69 0c2.12,0 5.09,0.24 8.9,0.7 27.97,5.64 41.96,35.24 41.96,88.8zm-38.14 0.7c0,-16.92 -1.27,-31.24 -3.81,-42.99 -4.24,-18.32 -11.87,-31.01 -22.89,-38.06 -3.81,-2.82 -6.35,-4.23 -7.63,-4.23 -5.93,0 -17.8,5.05 -35.6,15.15 -8.05,4.81 -15.26,9.63 -21.61,14.33 0,6.81 -1.38,13.86 -4.13,21.26 -2.75,7.52 -4.13,11.39 -4.13,11.98 0,0.47 0.21,1.18 0.63,2.11l31.15 0c10.59,0 15.89,12.22 15.89,36.65 0,13.27 -1.69,23.84 -5.08,31.71l29.24 0c1.27,6.57 4.45,15.5 9.54,26.78 12.3,-15.04 18.44,-39.94 18.44,-74.7zm-129.69 -56.38c0.42,-9.4 -0.85,-17.85 -3.81,-25.37 -13.14,8.93 -19.28,23.02 -18.44,42.28 3.39,-2.82 10.81,-8.46 22.25,-16.91zm39.41 71.18c0,-6.58 -0.63,-13.63 -1.91,-21.15 -0.43,-1.88 -1.17,-4.7 -2.23,-8.46 -1.06,-3.76 -3.07,-5.64 -6.04,-5.64l-30.51 0c-0.43,0 -1.27,0 -2.54,0 -0.85,0 -1.48,0 -1.91,0 -0.85,0 -4.24,3.29 -10.17,9.75 0,0.47 0,1.17 0,2.11 -2.12,0 -7.31,4.34 -15.58,13.04 -8.26,8.57 -16.21,17.27 -23.84,26.19 -4.24,5.17 -9.75,11.86 -16.53,20.32 -4.24,6.93 -6.35,12.57 -6.35,16.8 0,4.23 1.91,7.63 5.72,10.45 3.81,2.82 7.42,4.23 10.81,4.23 6.36,0 15.69,-17.38 27.98,-52.15l38.14 0 15.89 43.69c12.71,-15.04 19.07,-34.77 19.07,-59.2zm483.98 -345.32c0,23.96 -4.87,47.69 -14.62,71.18 -9.75,23.49 -22.04,41.81 -36.87,54.97 -2.96,2.82 -7.42,6.58 -13.35,11.28 -24.16,18.8 -48.74,31.48 -73.75,38.06 -4.24,0.94 -11.87,2.58 -22.89,4.93 -16.95,2.82 -27.55,4.23 -31.78,4.23 -29.24,0 -43.87,-15.27 -43.87,-45.93 0.42,-6.11 0.85,-11.04 1.27,-14.8 2.54,-19.74 10.59,-44.4 24.16,-74.12 9.75,-2.35 19.71,-4.46 29.77,-6.46l1.38 0.35c-16.95,37.59 -25.43,67.42 -25.43,89.5 0,30.07 14.2,45.11 42.59,45.11 2.12,0.47 3.39,0.47 3.81,0 15.68,-4.7 33.27,-13.63 52.77,-26.78 23.31,-15.51 40.69,-33.83 52.13,-54.97 13.98,-25.84 22.04,-53.56 24.16,-83.16l0 -8.46c0,-5.17 -0.43,-11.75 -1.27,-19.73 -1.7,-10.81 -4.45,-20.67 -8.27,-29.6 -11.02,-24.9 -29.24,-37.35 -54.67,-37.35 -0.85,0.47 -2.12,0.94 -3.81,1.41 -8.06,3.29 -16.53,7.52 -25.43,12.69 -33.06,19.73 -68.87,52.62 -107.44,98.67 -19.92,23.49 -37.72,46.28 -53.4,68.36 -4.66,7.05 -11.44,17.15 -20.34,30.3 -5.09,7.99 -13.99,19.5 -26.7,34.54 -2.54,2.35 -8.26,4.46 -17.17,6.34l0 117.69 -31.15 5.64 0 -118.39c-2.12,0 -5.3,-0.24 -9.54,-0.7 -7.63,-0.94 -14.2,-2.59 -19.71,-4.93 -19.5,-7.99 -29.25,-23.96 -29.25,-47.93 0,-15.97 3.92,-32.65 11.76,-50.04 7.84,-17.38 16.42,-30.3 25.75,-38.76 3.39,-3.29 6.36,-5.17 8.9,-5.64 14.41,-2.82 25.43,-4.93 33.06,-6.34 5.51,0 8.9,6.34 10.17,19.03l0 113.46c21.19,-28.66 42.17,-57.32 62.94,-85.98 24.58,-32.42 47.68,-59.2 69.3,-80.34 29.24,-28.19 56.37,-47.93 81.37,-59.2 7.2,-3.29 13.35,-5.64 18.43,-7.05 28.82,-5.64 46.41,-8.46 52.77,-8.46 22.46,0 39.41,9.87 50.85,29.6 8.9,15.5 13.35,34.77 13.35,57.79zm-380.17 162.8l0 -118.4c0,-0.47 -0.21,-2.35 -0.64,-5.64 -18.22,25.37 -27.33,50.98 -27.33,76.81 0,23.96 9.32,39.7 27.97,47.22zm323.78 167.02c0,10.45 -0.85,22.55 -2.54,36.29 -1.27,11.28 -5.09,22.2 -11.44,32.65 -7.21,11.86 -14.83,17.74 -22.89,17.74l-40.69 0c-10.17,0 -18.01,-7.75 -23.52,-23.26 -6.78,11.74 -14.2,19.03 -22.25,21.85 -2.54,0.94 -4.24,1.41 -5.08,1.41l-46.41 0c-2.97,0 -6.15,-3.29 -9.54,-9.87 -4.66,6.58 -8.9,9.87 -12.71,9.87l-54.04 0c-22.04,0 -33.06,-5.64 -33.06,-17.03 0,-5.76 7.2,-17.74 21.61,-36.3 12.29,-15.62 25.64,-30.07 40.05,-43.34 -4.24,-12.22 -6.36,-22.44 -6.36,-30.54 0,-22.2 8.9,-37.35 26.7,-45.46 5.09,-2.35 8.9,-3.52 11.44,-3.52l44.5 0c7.63,0 12.29,3.52 13.99,10.57 0,0.47 0.21,0.94 0.63,1.41 17.38,-7.99 30.73,-11.98 40.05,-11.98l40.69 0c2.12,0 5.09,0.24 8.91,0.7 27.97,5.64 41.96,35.24 41.96,88.8zm-38.14 0.7c0,-16.92 -1.27,-31.24 -3.81,-42.99 -4.24,-18.32 -11.87,-31.01 -22.89,-38.06 -3.81,-2.82 -6.36,-4.23 -7.63,-4.23 -5.93,0 -17.8,5.05 -35.6,15.15 -8.05,4.81 -15.26,9.63 -21.61,14.33 0,6.81 -1.38,13.86 -4.13,21.26 -2.75,7.52 -4.13,11.39 -4.13,11.98 0,0.47 0.21,1.18 0.63,2.11l31.15 0c10.6,0 15.89,12.22 15.89,36.65 0,13.27 -1.69,23.84 -5.09,31.71l29.24 0c1.27,6.57 4.45,15.5 9.54,26.78 12.29,-15.04 18.44,-39.94 18.44,-74.7zm-129.69 -56.38c0.43,-9.4 -0.85,-17.85 -3.81,-25.37 -13.14,8.93 -19.28,23.02 -18.43,42.28 3.39,-2.82 10.81,-8.46 22.25,-16.91zm39.42 71.18c0,-6.58 -0.64,-13.63 -1.91,-21.15 -0.42,-1.88 -1.17,-4.7 -2.22,-8.46 -1.06,-3.76 -3.07,-5.64 -6.04,-5.64l-30.52 0c-0.43,0 -1.27,0 -2.54,0 -0.85,0 -1.48,0 -1.91,0 -0.85,0 -4.24,3.29 -10.17,9.75 0,0.47 0,1.17 0,2.11 -2.12,0 -7.31,4.34 -15.57,13.04 -8.26,8.57 -16.21,17.27 -23.84,26.19 -4.24,5.17 -9.74,11.86 -16.53,20.32 -4.24,6.93 -6.36,12.57 -6.36,16.8 0,4.23 1.91,7.63 5.72,10.45 3.81,2.82 7.42,4.23 10.81,4.23 6.35,0 15.68,-17.38 27.97,-52.15l38.15 0 15.89 43.69c12.72,-15.04 19.07,-34.77 19.07,-59.2z"/>
   <path class="fil2" d="M2848.08 2066.41c0,40.87 -14.8,75.41 -44.4,103.59 -25.84,24.9 -58.49,40.64 -97.96,47.22 -20.67,3.76 -34.53,5.64 -41.58,5.64l-80.34 0c-2.82,0 -11.28,-0.94 -25.37,-2.82 -57.79,-6.11 -119.33,-24.43 -184.64,-54.97 -24.43,-11.28 -45.81,-27.25 -64.13,-47.92 -24.43,-27.72 -41.58,-58.02 -51.45,-90.91 -9.39,-31.01 -14.09,-63.43 -14.09,-97.25 0,-42.29 6.11,-82.93 18.32,-121.92 0.47,-0.47 0.47,-0.94 0,-1.41 -9.39,10.81 -16.91,22.08 -22.55,33.83l-47.92 0c3.76,-7.98 9.4,-16.91 16.91,-26.78 9.87,-13.63 23.26,-26.78 40.17,-39.46 8.46,-5.17 20.2,-13.39 35.24,-24.67 3.29,-5.64 7.99,-14.57 14.09,-26.78 10.34,-20.2 24.43,-39.94 42.29,-59.2 20.2,-22.08 40.41,-37.35 60.61,-45.81 16.91,-7.52 30.54,-11.28 40.87,-11.28l64.13 0c5.17,0 11.98,1.17 20.44,3.52 14.09,4.23 27.48,10.81 40.17,19.73 16.44,11.28 25.61,23.49 27.48,36.65 1.88,10.34 2.11,19.97 0.7,28.89 4.7,1.41 12.69,4 23.96,7.75l-26.07 0c-4.23,13.51 -8.93,23.49 -14.09,30.07 -8.93,10.69 -23.72,21.5 -44.4,32.18 -23.02,12.57 -46.51,20.67 -70.48,24.43 -9.39,1.41 -15.74,2.11 -19.03,2.11l-58.49 0c0.94,0 -0.94,-0.24 -5.64,-0.7 -11.74,-0.94 -21.38,-4.58 -28.89,-11.16 -7.52,-6.46 -11.28,-18.21 -11.28,-35.35 -2.35,1.41 -5.17,3.52 -8.46,6.34 -1.41,1.88 -5.52,11.63 -12.33,29.36 -6.81,17.62 -12.33,36.41 -16.56,56.15 -7.52,33.48 -11.28,64.83 -11.28,94.08 0,31.01 3.76,60.49 11.28,88.33 3.29,11.28 7.76,23.73 13.39,37.47 12.69,29.25 30.07,54.15 52.15,74.94 18.79,16.91 39.46,30.3 62.02,40.29 7.99,3.29 20.44,8.46 37.35,15.5 32.42,12.22 59.67,20.79 81.75,25.49 36.65,7.52 61.08,11.28 73.29,11.28 12.69,0 30.66,-3.05 53.91,-9.16 23.26,-6.11 43.58,-15.62 60.96,-28.31 41.35,-30.19 62.02,-69.3 62.02,-117.34 0,-30.65 -8.81,-61.19 -26.43,-91.61 -17.62,-30.42 -42.17,-57.44 -73.65,-80.93 -48.39,-35.82 -106.18,-62.25 -173.37,-79.28 -26.78,-7.05 -48.86,-10.57 -66.25,-10.57 -1.41,0 -7.05,0.59 -16.91,1.76 -9.87,1.17 -20.67,3.17 -32.42,5.99 -7.52,1.88 -18.56,5.4 -33.12,10.57 -4.23,2.35 -8.69,4.46 -13.39,6.34l-48.63 0c13.15,-7.05 30.89,-13.15 53.2,-18.32 22.32,-5.17 41.7,-7.75 58.14,-7.75l66.25 0c9.87,0 24.9,1.41 45.1,4.23 26.78,3.76 54.26,10.57 82.45,20.44 11.28,4.23 25.37,9.87 42.29,16.91 31.01,13.16 60.37,30.78 88.09,52.86 33.83,26.31 58.26,54.03 73.29,83.16 4.23,8.46 7.99,16.21 11.28,23.26 7.98,18.32 11.98,38.76 11.98,61.31zm-299.52 -386.2c0,-28.19 -19.26,-50.27 -57.79,-66.24 -7.52,-3.29 -13.16,-4.93 -16.92,-4.93 -1.88,0 -7.05,1.41 -15.5,4.23 -44.16,15.97 -80.57,50.74 -109.23,104.3 40.87,-15.51 81.28,-24.67 121.21,-27.49 2.35,-0.47 5.41,-0.7 9.16,-0.7l69.07 0c0,0.47 0,-2.58 0,-9.16zm-1.41 14.8c-8.46,-2.82 -18.56,-4.23 -30.3,-4.23 -14.57,0 -36.41,3.52 -65.54,10.57 -27.25,7.05 -47.22,13.39 -59.9,19.03 1.41,0 2.58,0.23 3.52,0.7 -3.76,9.39 -5.64,19.03 -5.64,28.89 0,5.17 0.47,9.87 1.41,14.09 0.94,4.23 3.88,8.93 8.81,14.09 4.93,5.17 9.28,7.99 13.04,8.46 6.58,1.41 8.46,2.11 5.64,2.11 -0.47,0 0.7,-0.24 3.52,-0.7 13.63,-2.35 26.78,-6.34 39.46,-11.98 46.52,-19.26 73.76,-41.35 81.75,-66.25 0.94,-3.29 2.35,-8.22 4.23,-14.8zm461.12 -307.26c0,23.96 -5.4,47.69 -16.21,71.18 -10.81,23.49 -24.43,41.81 -40.87,54.97 -3.29,2.82 -8.22,6.58 -14.8,11.28 -26.78,18.8 -54.03,31.48 -81.75,38.06 -4.7,0.94 -13.15,2.58 -25.37,4.93 -18.79,2.82 -30.54,4.23 -35.24,4.23 -32.42,0 -48.63,-15.27 -48.63,-45.93 0.47,-6.11 0.94,-11.04 1.41,-14.8 2.82,-19.74 11.74,-44.4 26.78,-74.12 10.81,-2.35 21.85,-4.46 33,-6.46l1.53 0.35c-18.79,37.59 -28.19,67.42 -28.19,89.5 0,30.07 15.74,45.11 47.22,45.11 2.35,0.47 3.76,0.47 4.23,0 17.39,-4.7 36.88,-13.63 58.5,-26.78 25.84,-15.51 45.1,-33.83 57.79,-54.97 15.5,-25.84 24.43,-53.56 26.78,-83.16l0 -8.46c0,-5.17 -0.47,-11.75 -1.41,-19.73 -1.88,-10.81 -4.93,-20.67 -9.16,-29.6 -12.22,-24.9 -32.42,-37.35 -60.61,-37.35 -0.94,0.47 -2.35,0.94 -4.23,1.41 -8.93,3.29 -18.33,7.52 -28.19,12.69 -36.65,19.73 -76.35,52.62 -119.1,98.67 -22.08,23.49 -41.81,46.28 -59.2,68.36 -5.17,7.05 -12.69,17.15 -22.55,30.3 -5.64,7.99 -15.5,19.5 -29.6,34.54 -2.82,2.35 -9.16,4.46 -19.03,6.34l0 117.69 -34.53 5.64 0 -118.39c-2.35,0 -5.87,-0.24 -10.57,-0.7 -8.46,-0.94 -15.74,-2.59 -21.85,-4.93 -21.61,-7.99 -32.42,-23.96 -32.42,-47.93 0,-15.97 4.35,-32.65 13.04,-50.04 8.69,-17.38 18.2,-30.3 28.54,-38.76 3.76,-3.29 7.05,-5.17 9.87,-5.64 15.97,-2.82 28.19,-4.93 36.65,-6.34 6.11,0 9.87,6.34 11.28,19.03l0 113.46c23.49,-28.66 46.75,-57.32 69.77,-85.98 27.25,-32.42 52.86,-59.2 76.82,-80.34 32.42,-28.19 62.49,-47.93 90.2,-59.2 7.99,-3.29 14.8,-5.64 20.44,-7.05 31.95,-5.64 51.45,-8.46 58.5,-8.46 24.9,0 43.69,9.87 56.38,29.6 9.87,15.5 14.8,34.77 14.8,57.79zm-421.43 162.8l0 -118.4c0,-0.47 -0.24,-2.35 -0.7,-5.64 -20.2,25.37 -30.3,50.98 -30.3,76.81 0,23.96 10.33,39.7 31.01,47.22z"/>
   <path class="fil3" d="M2093.02 1778.35l20.36 98.2 -39.91 1.98 12.17 -78.68c0.77,-4.57 1.2,-8.45 1.95,-12.81 1.48,-8.62 -0.37,-7.24 5.43,-8.7zm-25.94 97.76c-15.52,-1.98 -23.13,-7.48 -35.65,-11.08 2.11,-7.11 43.98,-84.36 50.73,-88.84l-15.08 99.92zm35.16 -100.38c3.96,3.49 51.58,79.27 53.64,85.58 -10.65,4.1 -22.04,11.98 -36.34,13.45l-17.3 -99.03zm6.77 -4.26l80.17 58.98c-3.13,7.65 -20.85,23.61 -27.85,26.24l-52.32 -85.23zm-84.24 88.68c-9.53,-5.03 -24.37,-15.38 -28.05,-23.4 5.17,-5.56 73.03,-65.73 75.39,-64.87 4.91,1.79 -17.14,36.01 -21.1,43.15 -4.54,8.19 -21.78,41.31 -26.24,45.12zm90.07 -94.95c3.11,-5.47 1.67,-4.7 10.33,-1.5 17.13,6.32 79.5,26.48 85.57,30.63 -3.51,13.68 -11.25,21.84 -15.5,32.04 -10.24,-3.64 -57.11,-42.4 -73.07,-53.89 -5.27,-3.8 -5.68,-5.24 -7.33,-7.29zm-121.03 66.41c-8.67,-4.31 -18.52,-20.81 -21.11,-31.75 9.41,-6.14 56.54,-24 73.05,-30.65 52.36,-21.11 -8.13,20.08 -33.83,45.46 -7.45,7.35 -10.68,7.34 -18.11,16.94zm-24.96 -38.36c-1.93,-10.24 -8.85,-25.13 -5.25,-36.19l96.87 -1.6c-3.47,2.8 -2.17,1.81 -6.3,3.74 -0.05,0.02 -4.74,1.88 -5.26,2.08l-34.24 13.74c-14.62,5.92 -30.89,14.03 -45.83,18.22zm170.8 -30.83c-14.47,-5 -18.64,-4.19 -20.73,-11.28l100.21 -1.7c-0.12,12.28 -0.76,27.65 -6.24,37.51 -12.58,-2.22 -35.13,-11.19 -48.52,-16 -8.63,-3.09 -16.38,-5.65 -24.72,-8.53zm-177.76 -11.57c0.57,-17.07 2.87,-24.44 5.73,-39.86 11.99,1.84 58.47,18.75 75.35,24.56 4.13,1.42 8.15,2.59 12.5,4.13 8.44,2.98 7.36,1.47 7.28,9.11l-100.87 2.06zm155.79 -6.94c2.06,-5.96 14.79,-8.46 21.02,-10.87l72.92 -28.03c2.46,12.02 6.64,24.48 7.19,38.4l-101.12 0.5zm-146.54 -39.94c2.23,-9.81 12.33,-26.93 18.57,-32.72 7.84,3.4 47.56,38.13 60.5,47.86 10.3,7.75 16.5,10.86 15.71,17.61l-94.78 -32.76zm142.51 31.18c0.8,-4.27 2.24,-4.89 7.87,-9.99l67.4 -56.94c7.04,6.17 15.84,18.3 18.65,30.22 -6.41,4.46 -86.09,35.82 -93.92,36.71zm-119.07 -69.91c3.94,-7.4 19.35,-20.12 29.17,-24.02 8.12,17.99 37.49,61.46 50.07,86.3 -4.49,-0.21 -74.8,-56.3 -79.24,-62.28zm111.9 62.22c1.02,-4.51 44.38,-81.7 49.23,-87.52 11.75,4.63 20.75,15.51 28.57,22.55l-18.3 16.67c-5.32,5.17 -13.02,11.26 -19.93,16.96 -3.95,3.26 -5.85,5.46 -9.67,8.79 -6.4,5.59 -22.69,21.95 -29.91,22.54zm-77.63 -89.95c7.97,-5.24 23.05,-11.31 34.63,-12.82 4.47,7.59 19.5,87.95 18.71,99.24 -6.99,-2.9 -10.75,-13.62 -14.61,-20.35 -8.44,-14.74 -35.2,-56.61 -38.74,-66.07zm71.17 86c-2.37,-4.64 9.92,-91.97 13.26,-99.5 12.84,1.27 27.26,6.97 36.13,12.29l-49.39 87.21zm4.64 -101.25c1.79,6.71 -9.96,92.9 -13.51,99.54 -4.83,-5.09 -19.75,-95.06 -20.17,-99.52l33.68 -0.02zm126.7 146.27c10.5,-83.19 -49.87,-149.54 -121.52,-159.17 -84.08,-11.3 -149.84,49.78 -160,121.45 -11.82,83.45 50.1,150.9 122.28,160.1 83.13,10.59 150.17,-50.55 159.24,-122.38z"/>
   <path class="fil1" d="M2141.44 1523.77c-0.92,5.34 -3.59,10.35 -8.66,14.78 -14.5,12.67 -23.11,7.04 -44.59,5.55 -16.81,-1.17 -33.87,-1.78 -50.86,-2.27 -17.98,-0.52 -59.48,-0.94 -78.49,-1.27 -6.4,7.37 -12.76,12.87 -18.7,17.02 52.37,1.96 124.99,5.56 148.58,10.18 28.41,5.57 52.94,13.52 78.41,25.37 7.99,3.72 16.83,7.59 23.45,13.57 -32.13,-8.23 -42.08,-20.76 -85.28,-24.06 -60.7,-4.64 -123.23,17.78 -146.05,72.77l0.98 -0.98c1.96,0 2.01,-1.44 2.28,-1.7l1.13 -0.57c0.71,-0.71 -0.42,-0.64 1.7,-1.7l0 -1.14 0.76 0c4.37,-8.65 9.54,-12.25 16.17,-19.54 66.2,-72.74 204.89,-32.74 266.86,29.66l45.77 45.31c0.67,0.74 0.87,1.11 1.8,2.25 5.63,-9.88 13.44,-21.75 20.99,-31.05 -24.88,-43.48 -62.8,-88.1 -73.34,-102.83l-35.28 -49.35 -67.64 0zm-182.35 132.04l-0.27 0.66c0.15,-0.16 0.24,-0.37 0.27,-0.66z"/>
   <path class="fil2" d="M1400.79 2080.11l23.73 -169.99 52.48 0c16.43,0 30.8,3.27 43.13,9.81 12.32,6.54 21.94,15.59 28.86,27.15 6.92,11.56 10.38,24.87 10.38,39.93 0,13.39 -2.28,25.74 -6.84,37.08 -4.57,11.33 -11.11,21.18 -19.63,29.55 -8.52,8.37 -18.63,14.87 -30.35,19.51 -11.71,4.64 -24.8,6.96 -39.24,6.96l-62.52 0zm39.7 -30.8l22.82 0c8.97,0 17.15,-1.48 24.53,-4.45 7.38,-2.97 13.73,-7.22 19.05,-12.78 5.33,-5.55 9.47,-12.09 12.44,-19.62 2.96,-7.53 4.45,-15.86 4.45,-24.98 0,-9.58 -1.98,-17.87 -5.93,-24.87 -3.95,-7 -9.58,-12.36 -16.89,-16.09 -7.3,-3.73 -16.05,-5.59 -26.24,-5.59l-19.17 0 -15.06 108.38zm129.6 30.8l23.73 -169.99 62.75 0c10.95,0 20.54,1.94 28.75,5.82 8.21,3.88 14.64,9.62 19.28,17.22 4.64,7.61 6.96,17.04 6.96,28.3 0,8.06 -1.41,15.52 -4.22,22.36 -2.81,6.84 -6.84,12.78 -12.09,17.8 -5.25,5.02 -11.6,8.98 -19.06,11.87l28.52 66.63 -37.65 0 -31.72 -75.75 21.22 14.15 -42.44 0 -8.67 61.61 -35.37 0zm48.37 -92.41l30.35 0c5.32,0 10,-1.14 14.03,-3.43 4.03,-2.28 7.22,-5.4 9.58,-9.35 2.36,-3.95 3.54,-8.44 3.54,-13.46 0,-6.24 -2.02,-11.22 -6.04,-14.94 -4.03,-3.73 -9.47,-5.59 -16.31,-5.59l-28.75 0 -6.39 46.78zm106.33 92.41l23.73 -169.99 35.37 0 -23.73 169.99 -35.37 0zm111.12 0l-34.45 -169.99 37.42 0 24.65 136.44 -8.22 0 62.98 -136.44 40.61 0 -81.91 169.99 -41.07 0zm116.83 0l23.73 -169.99 114.31 0 -4.33 30.8 -78.95 0 -5.25 38.56 74.39 0 -4.33 30.8 -74.39 0 -5.48 39.02 78.95 0 -4.33 30.8 -114.31 0zm134.39 0l23.73 -169.99 62.75 0c10.95,0 20.54,1.94 28.75,5.82 8.21,3.88 14.64,9.62 19.28,17.22 4.64,7.61 6.96,17.04 6.96,28.3 0,8.06 -1.41,15.52 -4.22,22.36 -2.81,6.84 -6.84,12.78 -12.09,17.8 -5.25,5.02 -11.6,8.98 -19.06,11.87l28.52 66.63 -37.65 0 -31.72 -75.75 21.22 14.15 -42.44 0 -8.67 61.61 -35.37 0zm48.37 -92.41l30.35 0c5.32,0 10,-1.14 14.03,-3.43 4.03,-2.28 7.22,-5.4 9.58,-9.35 2.36,-3.95 3.54,-8.44 3.54,-13.46 0,-6.24 -2.02,-11.22 -6.04,-14.94 -4.03,-3.73 -9.47,-5.59 -16.31,-5.59l-28.75 0 -6.39 46.78z"/>
  </g>
 </g>
</svg>
